HIERARCHY
ROOT pelvis
{
  OFFSET 0 100 0
  CHANNELS 6 Xposition Yposition Zposition Zrotation Xrotation Yrotation
  JOINT pelvis_right_femur
  {
    OFFSET -10.78128 -3.44521 -0.5502486
    CHANNELS 3 Zrotation Xrotation Yrotation
    JOINT right_femur_tibia
    {
      OFFSET -0.8047443 -44.0398 -0.1307829
      CHANNELS 3 Zrotation Xrotation Yrotation
      JOINT right_tibia_foot
      {
        OFFSET 3.006224 -47.83518 -5
        CHANNELS 3 Zrotation Xrotation Yrotation
        End Site
        {
          OFFSET 0 -5 15
        }
      }
    }
  }
  JOINT pelvis_left_femur
  {
    OFFSET 10.78128 -3.44521 -0.5502486
    CHANNELS 3 Zrotation Xrotation Yrotation
    JOINT left_femur_tibia
    {
      OFFSET 0.8047443 -44.0398 -0.1307829
      CHANNELS 3 Zrotation Xrotation Yrotation
      JOINT left_tibia_foot
      {
        OFFSET -4.370144 -48.10324 -4.275266
        CHANNELS 3 Zrotation Xrotation Yrotation
        End Site
        {
          OFFSET 0 -5 15
        }
      }
    }
  }
  JOINT pelvis_spine1
  {
    OFFSET 0 6.468898 -3.129235
    CHANNELS 3 Zrotation Xrotation Yrotation
    JOINT spine1
    {
      OFFSET 0 23.15396 4.99043
      CHANNELS 3 Zrotation Xrotation Yrotation
      JOINT spine2
      {
        OFFSET 0 20.79997 -5.064912
        CHANNELS 3 Zrotation Xrotation Yrotation
        JOINT neck
        {
          OFFSET 0 14.38658 9.616178
          CHANNELS 3 Zrotation Xrotation Yrotation
          End Site
          {
            OFFSET 0 20 0
          }
        }
      }
      JOINT right_manubrium
      {
        OFFSET -5.722621 16.35077 3.967754
        CHANNELS 3 Zrotation Xrotation Yrotation
        JOINT right_clavicle
        {
          OFFSET -13.16364 1.694482 -4.693211
          CHANNELS 3 Zrotation Xrotation Yrotation
          JOINT right_humerus
          {
            OFFSET -28.5034 -0.3100689 -2.792744
            CHANNELS 3 Zrotation Xrotation Yrotation
            JOINT right_radius
            {
              OFFSET -25.15693 0.02248979 -1.271978
              CHANNELS 3 Zrotation Xrotation Yrotation
              End Site
              {
                OFFSET -15 0 0
              }
            }
          }
        }
      }
      JOINT left_manubrium
      {
        OFFSET 5.722621 16.35077 3.967754
        CHANNELS 3 Zrotation Xrotation Yrotation
        JOINT left_clavicle
        {
          OFFSET 13.16364 1.694482 -4.693211
          CHANNELS 3 Zrotation Xrotation Yrotation
          JOINT left_humerus
          {
            OFFSET 29.39168 -1.063119 -2.237045
            CHANNELS 3 Zrotation Xrotation Yrotation
            JOINT left_radius
            {
              OFFSET 24.59957 -0.9528479 0.9047498
              CHANNELS 3 Zrotation Xrotation Yrotation
              End Site
              {
                OFFSET 15 -0 -0
              }
            }
          }
        }
      }
    }
  }
}
MOTION
Frames: 13
Frame Time: 0.0416666666667
-412.0676 103.2287 2996.039 -4.043637 -8.179356 -25.52251 6.777715 1.676869 2.765305 -0 12.43425 -0 -8.001165 -3.389867 -3.49136 -0.8048752 -9.004203 -4.618976 -0 56.08321 -0 -3.332205 -4.379951 17.90277 0.05325296 -5.70524 4.723525 0.5182609 17.7223 -6.930203 1.718796 22.79401 3.415636 2.983111 -15.55885 4.342791 3.055389 -23.02047 14.93876 86.6625 12.69368 -16.72067 -0 0 19.26051 -28.47851 18.49787 14.35475 6.209781 -25.70357 -7.726068 -95.95344 13.84314 25.53925 0 0 -3.482375 14.45047 25.20578 -6.650161
-414.4016 103.455 3001.038 -4.21 -8.196643 -26.52941 6.516603 5.837842 2.617494 -0 10.78021 -0 -7.573287 -7.509959 -3.111211 0.3983435 -14.50612 -3.940802 -0 48.54869 -0 -3.224692 -4.664179 18.56616 0.09752175 -5.671128 4.943939 0.5099694 17.73476 -6.761876 1.821564 22.56033 2.858181 2.57302 -15.25565 4.112655 3.024786 -23.94581 14.91381 85.96717 12.60311 -15.08075 -0 0 21.32372 -28.64971 19.23489 15.17562 5.656644 -24.88321 -7.627914 -96.53879 13.83648 27.41443 0 0 -1.644326 12.87253 25.14717 -4.928595
-416.634 103.0636 3006.062 -4.250926 -7.986325 -27.44844 6.063187 9.697052 2.273243 -0 9.551535 -0 -7.107636 -11.29247 -2.729211 1.407239 -18.62307 -3.473388 -0 39.32774 -0 -3.146445 -5.166221 18.93433 0.1412796 -5.647712 5.194389 0.5373051 17.65116 -6.615259 1.929251 22.25327 2.243328 2.070484 -14.98482 3.901546 2.925987 -24.98992 14.85033 85.19733 12.51729 -13.3103 -0 0 23.62449 -28.69271 20.03141 15.98024 5.073977 -24.02035 -7.46094 -96.95455 13.75492 29.23186 0 0 -0.1426709 11.34969 24.94186 -3.250384
-418.8337 102.2257 3011.274 -4.025892 -7.476751 -28.22456 5.39387 13.14057 2.008833 -0 9.261816 -0 -6.356114 -13.92969 -2.234552 2.017571 -21.58003 -3.255748 -0 30.27159 -0 -3.074118 -5.655743 19.09194 0.1746761 -5.624351 5.453578 0.5950073 17.46069 -6.48896 2.033534 21.90867 1.627395 1.518212 -14.77381 3.733272 2.76246 -26.05515 14.74263 84.40573 12.46201 -11.52325 -0 0 25.96344 -28.58788 20.79812 16.69519 4.509249 -23.16529 -7.224753 -97.17287 13.63115 30.84355 -0 0 0.93164 10.00896 24.60416 -1.751596
-421.0548 101.165 3016.788 -3.546911 -6.768685 -28.84184 4.538443 16.02847 1.948457 -0 10.33406 -0 -5.300631 -14.91323 -1.614303 2.115669 -23.485 -3.320838 -0 22.66857 -0 -2.979013 -6.039659 19.15162 0.1887054 -5.580929 5.691256 0.6610242 17.18648 -6.36888 2.124122 21.59271 1.094279 0.9964021 -14.64864 3.628157 2.554622 -26.99663 14.59751 83.68497 12.46939 -9.884681 -0 0 28.03264 -28.36195 21.40171 17.25044 4.021913 -22.3846 -6.944421 -97.23115 13.51807 32.11886 -0 0 1.597644 8.95355 24.18466 -0.5440577
-423.334 100.1141 3022.665 -2.973137 -6.096354 -29.3063 3.602941 18.21353 2.03839 -0 13.15353 -0 -4.208897 -14.03283 -0.9796942 1.670127 -24.26523 -3.703706 -0 17.28369 -0 -2.821557 -6.309341 19.20798 0.180682 -5.502431 5.876589 0.7056909 16.88933 -6.240832 2.192022 21.37635 0.7254582 0.5980284 -14.61837 3.592261 2.341564 -27.67139 14.43948 83.13981 12.55667 -8.577534 -0 0 29.51961 -28.09025 21.72469 17.60589 3.666525 -21.75112 -6.67038 -97.21971 13.46316 32.98512 -0 0 1.974746 8.232794 23.76434 0.3133044
-425.689 99.29673 3028.895 -2.513041 -5.711475 -29.61582 2.724537 19.5217 2.132426 -0 17.9869 -0 -3.460323 -11.38396 -0.4925594 0.7231032 -23.76612 -4.422297 -0 14.42375 -0 -2.559404 -6.506405 19.30453 0.1552375 -5.390001 5.98644 0.7092201 16.6406 -6.105491 2.232141 21.3023 0.5657151 0.3883682 -14.66997 3.616034 2.166521 -27.99331 14.30116 82.84704 12.71513 -7.747567 -0 0 30.23002 -27.8589 21.72397 17.75891 3.474352 -21.32519 -6.458654 -97.22266 13.489 33.42928 -0 0 2.193256 7.842049 23.42494 0.8143422
-428.1084 98.91249 3035.391 -2.309253 -5.767718 -29.74779 1.996739 19.72944 2.109223 -0 24.80075 -0 -3.299891 -7.353521 -0.2571942 -0.6114097 -21.8989 -5.440814 -0 13.96252 -0 -2.162291 -6.715914 19.4251 0.1206791 -5.259847 6.01085 0.671397 16.48755 -5.980264 2.243637 21.3703 0.6107845 0.3808019 -14.77781 3.682167 2.057292 -27.9564 14.20684 82.83002 12.91586 -7.459166 -0 0 30.14371 -27.72049 21.44114 17.73147 3.446323 -21.13779 -6.346077 -97.26883 13.59054 33.47511 -0 0 2.311903 7.747525 23.21774 0.9832426
-430.5419 99.10217 3041.992 -2.368193 -6.254969 -29.66799 1.426268 18.57315 1.940053 -0 33.04816 -0 -3.703052 -2.557774 -0.281538 -2.154386 -18.76983 -6.641618 -0 15.35658 -0 -1.622913 -7.070492 19.50785 0.0846265 -5.133192 5.954031 0.6069099 16.43954 -5.887903 2.228774 21.54765 0.8215792 0.5439998 -14.91783 3.774625 2.017681 -27.61747 14.16367 83.06216 13.12503 -7.68867 -0 0 29.38006 -27.67965 20.9648 17.55353 3.560025 -21.18597 -6.33953 -97.33199 13.74481 33.1635 -0 0 2.308844 7.91054 23.15196 0.8536277
-432.9052 99.88826 3048.483 -2.569823 -7.008866 -29.34528 0.955354 15.82395 1.673865 -0 41.543 -0 -4.407623 2.215281 -0.5330272 -3.686358 -14.71832 -7.839499 -0 17.67846 -0 -0.9697383 -7.742688 19.47506 0.05208813 -5.027154 5.831041 0.5346846 16.47729 -5.844966 2.191575 21.78963 1.146974 0.8255014 -15.07552 3.882848 2.032577 -27.06223 14.16451 83.48877 13.31577 -8.350883 -0 0 28.12322 -27.70822 20.38592 17.25432 3.782282 -21.44078 -6.422179 -97.36172 13.92229 32.54398 -0 0 2.123265 8.296922 23.20336 0.4607231
-435.1104 101.1194 3054.656 -2.756497 -7.795173 -28.769 0.5344241 11.43875 1.360154 -0 48.5759 -0 -5.073667 6.070945 -1.010861 -4.982514 -10.20984 -8.840834 -0 19.73454 -0 -0.2764237 -8.897688 19.27364 0.02589291 -4.951888 5.662042 0.4703849 16.57065 -5.858428 2.136654 22.05461 1.539863 1.172501 -15.24545 4.001183 2.078926 -26.37722 14.19608 84.04968 13.47143 -9.337502 -0 0 26.55894 -27.76831 19.77478 16.86013 4.079569 -21.86151 -6.567194 -97.31143 14.09408 31.66999 -0 0 1.696013 8.876787 23.33156 -0.1598107
-437.1123 102.4758 3060.365 -2.847269 -8.428249 -27.97231 0.1848814 5.717432 0.97243 -0 52.38807 -0 -5.513469 8.220508 -1.72969 -5.852854 -5.625515 -9.515376 -0 20.38693 -0 0.3638783 -10.59794 18.91342 0.007432219 -4.912289 5.466029 0.4239118 16.69244 -5.928464 2.06813 22.31184 1.965305 1.544365 -15.42693 4.126876 2.136078 -25.63135 14.24634 84.69434 13.58301 -10.5517 -0 0 24.83484 -27.82873 19.17618 16.39226 4.42544 -22.41028 -6.749562 -97.15083 14.23607 30.5894 -0 0 0.9877835 9.626264 23.49752 -0.9772437
-438.9387 103.5712 3065.588 -2.869167 -8.821638 -27.04197 -0.01628936 -0.7076346 0.4151881 -0 51.88368 -0 -5.829286 8.395096 -2.610879 -6.20266 -1.140947 -9.834501 -0 19.06966 -0 0.9029258 -12.71899 18.46692 -0.003674956 -4.91055 5.256182 0.4001252 16.82312 -6.052337 1.988825 22.54426 2.403768 1.917665 -15.62029 4.259274 2.192089 -24.86527 14.30779 85.38675 13.64635 -11.92856 -0 0 23.04203 -27.86979 18.61153 15.86281 4.8056 -23.06139 -6.95084 -96.86532 14.33138 29.33066 0 0 -0.0227003 10.53528 23.67458 -1.977424
